<svg fill="#FFA500" width="36px" height="36px" viewBox="0 0 2 2" xmlns="http://www.w3.org/2000/svg"><path d="M1 0c0.552 0 1 0.448 1 1s-0.448 1 -1 1S0 1.552 0 1 0.448 0 1 0m0.444 0.6c-0.038 0.001 -0.097 0.021 -0.378 0.136a48.5 48.5 0 0 0 -0.591 0.251q-0.072 0.028 -0.075 0.055c-0.004 0.035 0.046 0.045 0.109 0.066 0.052 0.017 0.121 0.036 0.158 0.037q0.049 0.001 0.11 -0.04 0.414 -0.276 0.427 -0.279c0.006 -0.001 0.015 -0.003 0.021 0.002 0.006 0.005 0.005 0.015 0.005 0.018 -0.005 0.021 -0.264 0.254 -0.279 0.269l-0.007 0.007c-0.055 0.054 -0.111 0.09 -0.015 0.152 0.087 0.056 0.137 0.092 0.226 0.15 0.057 0.037 0.102 0.081 0.161 0.075 0.027 -0.003 0.055 -0.028 0.069 -0.103 0.034 -0.177 0.1 -0.561 0.115 -0.719a0.17 0.17 0 0 0 -0.002 -0.039 0.042 0.042 0 0 0 -0.014 -0.027c-0.012 -0.01 -0.031 -0.012 -0.039 -0.012"/></svg>