<svg fill="#FFA500" width="36px" height="36px" viewBox="0 0 11.52 11.52" id="Flat" xmlns="http://www.w3.org/2000/svg"><path d="M10.545 3.141a1.078 1.078 0 0 0 -0.653 -0.736C8.35 1.813 5.894 1.818 5.76 1.818c-0.134 -0.001 -2.59 -0.006 -4.132 0.587A1.078 1.078 0 0 0 0.975 3.141C0.859 3.588 0.72 4.405 0.72 5.76s0.139 2.172 0.255 2.619a1.078 1.078 0 0 0 0.653 0.736c1.476 0.567 3.79 0.587 4.103 0.587h0.059c0.313 0 2.626 -0.02 4.102 -0.587a1.078 1.078 0 0 0 0.653 -0.736c0.116 -0.447 0.255 -1.264 0.255 -2.619s-0.139 -2.172 -0.255 -2.619m-3.245 2.769 -2.16 1.44A0.18 0.18 0 0 1 4.86 7.2V4.32a0.18 0.18 0 0 1 0.28 -0.15l2.16 1.44a0.18 0.18 0 0 1 0 0.3"/></svg>